<svg width="41" height="31" viewBox="0 0 41 31" fill="none" xmlns="http://www.w3.org/2000/svg">
<path d="M2.524 14.8H1.144V13.6H5.224V14.8H3.844V22H2.524V14.8ZM6.58309 13.6H10.1831V14.8H7.90309V17.02H9.71509V18.22H7.90309V20.8H10.1831V22H6.58309V13.6ZM11.6625 13.6H13.3185L14.6025 18.628H14.6265V13.6H15.8025V22H14.4465L12.8625 15.868H12.8385V22H11.6625V13.6ZM18.5236 13.6H20.3116L21.6796 22H20.3596L20.1196 20.332V20.356H18.6196L18.3796 22H17.1556L18.5236 13.6ZM19.9636 19.216L19.3756 15.064H19.3516L18.7756 19.216H19.9636ZM24.8765 22.12C24.2445 22.12 23.7605 21.94 23.4245 21.58C23.0965 21.22 22.9325 20.712 22.9325 20.056V15.544C22.9325 14.888 23.0965 14.38 23.4245 14.02C23.7605 13.66 24.2445 13.48 24.8765 13.48C25.5085 13.48 25.9885 13.66 26.3165 14.02C26.6525 14.38 26.8205 14.888 26.8205 15.544V16.432H25.5725V15.46C25.5725 14.94 25.3525 14.68 24.9125 14.68C24.4725 14.68 24.2525 14.94 24.2525 15.46V20.152C24.2525 20.664 24.4725 20.92 24.9125 20.92C25.3525 20.92 25.5725 20.664 25.5725 20.152V18.868H26.8205V20.056C26.8205 20.712 26.6525 21.22 26.3165 21.58C25.9885 21.94 25.5085 22.12 24.8765 22.12ZM28.3303 13.6H29.6503V22H28.3303V13.6ZM32.3909 14.8H31.0109V13.6H35.0909V14.8H33.7109V22H32.3909V14.8ZM37.7088 18.424L36.1128 13.6H37.5168L38.4168 16.684H38.4408L39.3408 13.6H40.6248L39.0288 18.424V22H37.7088V18.424Z" fill="#3F4AA7"/>
<path d="M29 4L19 11.5H39L29 4Z" fill="#3F4AA7" stroke="#3F4AA7"/>
<path d="M26 11.5H2L14 1.5L26 11.5Z" stroke="#3F4AA7"/>
<path d="M3 24H38" stroke="#3F4AA7" stroke-width="0.5"/>
<path d="M8.98 30.05C8.71667 30.05 8.515 29.975 8.375 29.825C8.23833 29.675 8.17 29.4633 8.17 29.19V27.31C8.17 27.0367 8.23833 26.825 8.375 26.675C8.515 26.525 8.71667 26.45 8.98 26.45C9.24333 26.45 9.44333 26.525 9.58 26.675C9.72 26.825 9.79 27.0367 9.79 27.31V27.68H9.27V27.275C9.27 27.0583 9.17833 26.95 8.995 26.95C8.81167 26.95 8.72 27.0583 8.72 27.275V29.23C8.72 29.4433 8.81167 29.55 8.995 29.55C9.17833 29.55 9.27 29.4433 9.27 29.23V28.695H9.79V29.19C9.79 29.4633 9.72 29.675 9.58 29.825C9.44333 29.975 9.24333 30.05 8.98 30.05ZM11.2238 30.05C10.9538 30.05 10.7472 29.9733 10.6038 29.82C10.4605 29.6667 10.3888 29.45 10.3888 29.17V27.33C10.3888 27.05 10.4605 26.8333 10.6038 26.68C10.7472 26.5267 10.9538 26.45 11.2238 26.45C11.4938 26.45 11.7005 26.5267 11.8438 26.68C11.9872 26.8333 12.0588 27.05 12.0588 27.33V29.17C12.0588 29.45 11.9872 29.6667 11.8438 29.82C11.7005 29.9733 11.4938 30.05 11.2238 30.05ZM11.2238 29.55C11.4138 29.55 11.5088 29.435 11.5088 29.205V27.295C11.5088 27.065 11.4138 26.95 11.2238 26.95C11.0338 26.95 10.9388 27.065 10.9388 27.295V29.205C10.9388 29.435 11.0338 29.55 11.2238 29.55ZM12.7308 26.5H13.4208L13.9558 28.595H13.9658V26.5H14.4558V30H13.8908L13.2308 27.445H13.2208V30H12.7308V26.5ZM15.8796 30.05C15.6129 30.05 15.4112 29.975 15.2746 29.825C15.1379 29.6717 15.0696 29.4533 15.0696 29.17V28.97H15.5896V29.21C15.5896 29.4367 15.6846 29.55 15.8746 29.55C15.9679 29.55 16.0379 29.5233 16.0846 29.47C16.1346 29.4133 16.1596 29.3233 16.1596 29.2C16.1596 29.0533 16.1262 28.925 16.0596 28.815C15.9929 28.7017 15.8696 28.5667 15.6896 28.41C15.4629 28.21 15.3046 28.03 15.2146 27.87C15.1246 27.7067 15.0796 27.5233 15.0796 27.32C15.0796 27.0433 15.1496 26.83 15.2896 26.68C15.4296 26.5267 15.6329 26.45 15.8996 26.45C16.1629 26.45 16.3612 26.5267 16.4946 26.68C16.6312 26.83 16.6996 27.0467 16.6996 27.33V27.475H16.1796V27.295C16.1796 27.175 16.1562 27.0883 16.1096 27.035C16.0629 26.9783 15.9946 26.95 15.9046 26.95C15.7212 26.95 15.6296 27.0617 15.6296 27.285C15.6296 27.4117 15.6629 27.53 15.7296 27.64C15.7996 27.75 15.9246 27.8833 16.1046 28.04C16.3346 28.24 16.4929 28.4217 16.5796 28.585C16.6662 28.7483 16.7096 28.94 16.7096 29.16C16.7096 29.4467 16.6379 29.6667 16.4946 29.82C16.3546 29.9733 16.1496 30.05 15.8796 30.05ZM17.7549 27H17.1799V26.5H18.8799V27H18.3049V30H17.7549V27ZM19.4462 26.5H20.2612C20.5445 26.5 20.7512 26.5667 20.8812 26.7C21.0112 26.83 21.0762 27.0317 21.0762 27.305V27.52C21.0762 27.8833 20.9562 28.1133 20.7162 28.21V28.22C20.8495 28.26 20.9429 28.3417 20.9962 28.465C21.0529 28.5883 21.0812 28.7533 21.0812 28.96V29.575C21.0812 29.675 21.0845 29.7567 21.0912 29.82C21.0979 29.88 21.1145 29.94 21.1412 30H20.5812C20.5612 29.9433 20.5479 29.89 20.5412 29.84C20.5345 29.79 20.5312 29.7 20.5312 29.57V28.93C20.5312 28.77 20.5045 28.6583 20.4512 28.595C20.4012 28.5317 20.3129 28.5 20.1862 28.5H19.9962V30H19.4462V26.5ZM20.1962 28C20.3062 28 20.3879 27.9717 20.4412 27.915C20.4979 27.8583 20.5262 27.7633 20.5262 27.63V27.36C20.5262 27.2333 20.5029 27.1417 20.4562 27.085C20.4129 27.0283 20.3429 27 20.2462 27H19.9962V28H20.1962ZM22.5628 30.05C22.2961 30.05 22.0928 29.975 21.9528 29.825C21.8128 29.6717 21.7428 29.4533 21.7428 29.17V26.5H22.2928V29.21C22.2928 29.33 22.3161 29.4167 22.3628 29.47C22.4128 29.5233 22.4828 29.55 22.5728 29.55C22.6628 29.55 22.7311 29.5233 22.7778 29.47C22.8278 29.4167 22.8528 29.33 22.8528 29.21V26.5H23.3828V29.17C23.3828 29.4533 23.3128 29.6717 23.1728 29.825C23.0328 29.975 22.8295 30.05 22.5628 30.05ZM24.8495 30.05C24.5862 30.05 24.3845 29.975 24.2445 29.825C24.1079 29.675 24.0395 29.4633 24.0395 29.19V27.31C24.0395 27.0367 24.1079 26.825 24.2445 26.675C24.3845 26.525 24.5862 26.45 24.8495 26.45C25.1129 26.45 25.3129 26.525 25.4495 26.675C25.5895 26.825 25.6595 27.0367 25.6595 27.31V27.68H25.1395V27.275C25.1395 27.0583 25.0479 26.95 24.8645 26.95C24.6812 26.95 24.5895 27.0583 24.5895 27.275V29.23C24.5895 29.4433 24.6812 29.55 24.8645 29.55C25.0479 29.55 25.1395 29.4433 25.1395 29.23V28.695H25.6595V29.19C25.6595 29.4633 25.5895 29.675 25.4495 29.825C25.3129 29.975 25.1129 30.05 24.8495 30.05ZM26.7186 27H26.1436V26.5H27.8436V27H27.2686V30H26.7186V27ZM28.4099 26.5H28.9599V30H28.4099V26.5ZM30.4668 30.05C30.1968 30.05 29.9901 29.9733 29.8468 29.82C29.7035 29.6667 29.6318 29.45 29.6318 29.17V27.33C29.6318 27.05 29.7035 26.8333 29.8468 26.68C29.9901 26.5267 30.1968 26.45 30.4668 26.45C30.7368 26.45 30.9435 26.5267 31.0868 26.68C31.2301 26.8333 31.3018 27.05 31.3018 27.33V29.17C31.3018 29.45 31.2301 29.6667 31.0868 29.82C30.9435 29.9733 30.7368 30.05 30.4668 30.05ZM30.4668 29.55C30.6568 29.55 30.7518 29.435 30.7518 29.205V27.295C30.7518 27.065 30.6568 26.95 30.4668 26.95C30.2768 26.95 30.1818 27.065 30.1818 27.295V29.205C30.1818 29.435 30.2768 29.55 30.4668 29.55ZM31.9737 26.5H32.6637L33.1987 28.595H33.2087V26.5H33.6987V30H33.1337L32.4737 27.445H32.4637V30H31.9737V26.5Z" fill="#3F4AA7"/>
</svg>
