<svg width="60" height="60" viewBox="0 0 60 60" fill="none" xmlns="http://www.w3.org/2000/svg">
<circle cx="30" cy="30" r="29.95" fill="white" stroke="black" stroke-width="0.1"/>
<path d="M11.524 27.3H10.144V26.1H14.224V27.3H12.844V34.5H11.524V27.3ZM15.5831 26.1H19.1831V27.3H16.9031V29.52H18.7151V30.72H16.9031V33.3H19.1831V34.5H15.5831V26.1ZM20.6625 26.1H22.3185L23.6025 31.128H23.6265V26.1H24.8025V34.5H23.4465L21.8625 28.368H21.8385V34.5H20.6625V26.1ZM27.5236 26.1H29.3116L30.6796 34.5H29.3596L29.1196 32.832V32.856H27.6196L27.3796 34.5H26.1556L27.5236 26.1ZM28.9636 31.716L28.3756 27.564H28.3516L27.7756 31.716H28.9636ZM33.8765 34.62C33.2445 34.62 32.7605 34.44 32.4245 34.08C32.0965 33.72 31.9325 33.212 31.9325 32.556V28.044C31.9325 27.388 32.0965 26.88 32.4245 26.52C32.7605 26.16 33.2445 25.98 33.8765 25.98C34.5085 25.98 34.9885 26.16 35.3165 26.52C35.6525 26.88 35.8205 27.388 35.8205 28.044V28.932H34.5725V27.96C34.5725 27.44 34.3525 27.18 33.9125 27.18C33.4725 27.18 33.2525 27.44 33.2525 27.96V32.652C33.2525 33.164 33.4725 33.42 33.9125 33.42C34.3525 33.42 34.5725 33.164 34.5725 32.652V31.368H35.8205V32.556C35.8205 33.212 35.6525 33.72 35.3165 34.08C34.9885 34.44 34.5085 34.62 33.8765 34.62ZM37.3303 26.1H38.6503V34.5H37.3303V26.1ZM41.3909 27.3H40.0109V26.1H44.0909V27.3H42.7109V34.5H41.3909V27.3ZM46.7088 30.924L45.1128 26.1H46.5168L47.4168 29.184H47.4408L48.3408 26.1H49.6248L48.0288 30.924V34.5H46.7088V30.924Z" fill="#3F4AA7"/>
<path d="M38 16.5L28 24H48L38 16.5Z" fill="#3F4AA7" stroke="#3F4AA7"/>
<path d="M35 24H11L23 14L35 24Z" stroke="#3F4AA7"/>
<path d="M12 36.5H47" stroke="#3F4AA7" stroke-width="0.5"/>
<path d="M17.98 42.55C17.7167 42.55 17.515 42.475 17.375 42.325C17.2383 42.175 17.17 41.9633 17.17 41.69V39.81C17.17 39.5367 17.2383 39.325 17.375 39.175C17.515 39.025 17.7167 38.95 17.98 38.95C18.2433 38.95 18.4433 39.025 18.58 39.175C18.72 39.325 18.79 39.5367 18.79 39.81V40.18H18.27V39.775C18.27 39.5583 18.1783 39.45 17.995 39.45C17.8117 39.45 17.72 39.5583 17.72 39.775V41.73C17.72 41.9433 17.8117 42.05 17.995 42.05C18.1783 42.05 18.27 41.9433 18.27 41.73V41.195H18.79V41.69C18.79 41.9633 18.72 42.175 18.58 42.325C18.4433 42.475 18.2433 42.55 17.98 42.55ZM20.2238 42.55C19.9538 42.55 19.7472 42.4733 19.6038 42.32C19.4605 42.1667 19.3888 41.95 19.3888 41.67V39.83C19.3888 39.55 19.4605 39.3333 19.6038 39.18C19.7472 39.0267 19.9538 38.95 20.2238 38.95C20.4938 38.95 20.7005 39.0267 20.8438 39.18C20.9872 39.3333 21.0588 39.55 21.0588 39.83V41.67C21.0588 41.95 20.9872 42.1667 20.8438 42.32C20.7005 42.4733 20.4938 42.55 20.2238 42.55ZM20.2238 42.05C20.4138 42.05 20.5088 41.935 20.5088 41.705V39.795C20.5088 39.565 20.4138 39.45 20.2238 39.45C20.0338 39.45 19.9388 39.565 19.9388 39.795V41.705C19.9388 41.935 20.0338 42.05 20.2238 42.05ZM21.7308 39H22.4208L22.9558 41.095H22.9658V39H23.4558V42.5H22.8908L22.2308 39.945H22.2208V42.5H21.7308V39ZM24.8796 42.55C24.6129 42.55 24.4112 42.475 24.2746 42.325C24.1379 42.1717 24.0696 41.9533 24.0696 41.67V41.47H24.5896V41.71C24.5896 41.9367 24.6846 42.05 24.8746 42.05C24.9679 42.05 25.0379 42.0233 25.0846 41.97C25.1346 41.9133 25.1596 41.8233 25.1596 41.7C25.1596 41.5533 25.1262 41.425 25.0596 41.315C24.9929 41.2017 24.8696 41.0667 24.6896 40.91C24.4629 40.71 24.3046 40.53 24.2146 40.37C24.1246 40.2067 24.0796 40.0233 24.0796 39.82C24.0796 39.5433 24.1496 39.33 24.2896 39.18C24.4296 39.0267 24.6329 38.95 24.8996 38.95C25.1629 38.95 25.3612 39.0267 25.4946 39.18C25.6312 39.33 25.6996 39.5467 25.6996 39.83V39.975H25.1796V39.795C25.1796 39.675 25.1562 39.5883 25.1096 39.535C25.0629 39.4783 24.9946 39.45 24.9046 39.45C24.7212 39.45 24.6296 39.5617 24.6296 39.785C24.6296 39.9117 24.6629 40.03 24.7296 40.14C24.7996 40.25 24.9246 40.3833 25.1046 40.54C25.3346 40.74 25.4929 40.9217 25.5796 41.085C25.6662 41.2483 25.7096 41.44 25.7096 41.66C25.7096 41.9467 25.6379 42.1667 25.4946 42.32C25.3546 42.4733 25.1496 42.55 24.8796 42.55ZM26.7549 39.5H26.1799V39H27.8799V39.5H27.3049V42.5H26.7549V39.5ZM28.4462 39H29.2612C29.5445 39 29.7512 39.0667 29.8812 39.2C30.0112 39.33 30.0762 39.5317 30.0762 39.805V40.02C30.0762 40.3833 29.9562 40.6133 29.7162 40.71V40.72C29.8495 40.76 29.9429 40.8417 29.9962 40.965C30.0529 41.0883 30.0812 41.2533 30.0812 41.46V42.075C30.0812 42.175 30.0845 42.2567 30.0912 42.32C30.0979 42.38 30.1145 42.44 30.1412 42.5H29.5812C29.5612 42.4433 29.5479 42.39 29.5412 42.34C29.5345 42.29 29.5312 42.2 29.5312 42.07V41.43C29.5312 41.27 29.5045 41.1583 29.4512 41.095C29.4012 41.0317 29.3129 41 29.1862 41H28.9962V42.5H28.4462V39ZM29.1962 40.5C29.3062 40.5 29.3879 40.4717 29.4412 40.415C29.4979 40.3583 29.5262 40.2633 29.5262 40.13V39.86C29.5262 39.7333 29.5029 39.6417 29.4562 39.585C29.4129 39.5283 29.3429 39.5 29.2462 39.5H28.9962V40.5H29.1962ZM31.5628 42.55C31.2961 42.55 31.0928 42.475 30.9528 42.325C30.8128 42.1717 30.7428 41.9533 30.7428 41.67V39H31.2928V41.71C31.2928 41.83 31.3161 41.9167 31.3628 41.97C31.4128 42.0233 31.4828 42.05 31.5728 42.05C31.6628 42.05 31.7311 42.0233 31.7778 41.97C31.8278 41.9167 31.8528 41.83 31.8528 41.71V39H32.3828V41.67C32.3828 41.9533 32.3128 42.1717 32.1728 42.325C32.0328 42.475 31.8295 42.55 31.5628 42.55ZM33.8495 42.55C33.5862 42.55 33.3845 42.475 33.2445 42.325C33.1079 42.175 33.0395 41.9633 33.0395 41.69V39.81C33.0395 39.5367 33.1079 39.325 33.2445 39.175C33.3845 39.025 33.5862 38.95 33.8495 38.95C34.1129 38.95 34.3129 39.025 34.4495 39.175C34.5895 39.325 34.6595 39.5367 34.6595 39.81V40.18H34.1395V39.775C34.1395 39.5583 34.0479 39.45 33.8645 39.45C33.6812 39.45 33.5895 39.5583 33.5895 39.775V41.73C33.5895 41.9433 33.6812 42.05 33.8645 42.05C34.0479 42.05 34.1395 41.9433 34.1395 41.73V41.195H34.6595V41.69C34.6595 41.9633 34.5895 42.175 34.4495 42.325C34.3129 42.475 34.1129 42.55 33.8495 42.55ZM35.7186 39.5H35.1436V39H36.8436V39.5H36.2686V42.5H35.7186V39.5ZM37.4099 39H37.9599V42.5H37.4099V39ZM39.4668 42.55C39.1968 42.55 38.9901 42.4733 38.8468 42.32C38.7035 42.1667 38.6318 41.95 38.6318 41.67V39.83C38.6318 39.55 38.7035 39.3333 38.8468 39.18C38.9901 39.0267 39.1968 38.95 39.4668 38.95C39.7368 38.95 39.9435 39.0267 40.0868 39.18C40.2301 39.3333 40.3018 39.55 40.3018 39.83V41.67C40.3018 41.95 40.2301 42.1667 40.0868 42.32C39.9435 42.4733 39.7368 42.55 39.4668 42.55ZM39.4668 42.05C39.6568 42.05 39.7518 41.935 39.7518 41.705V39.795C39.7518 39.565 39.6568 39.45 39.4668 39.45C39.2768 39.45 39.1818 39.565 39.1818 39.795V41.705C39.1818 41.935 39.2768 42.05 39.4668 42.05ZM40.9737 39H41.6637L42.1987 41.095H42.2087V39H42.6987V42.5H42.1337L41.4737 39.945H41.4637V42.5H40.9737V39Z" fill="#3F4AA7"/>
</svg>
